<svg xmlns="http://www.w3.org/2000/svg" xmlns:xlink="http://www.w3.org/1999/xlink" width="4814" zoomAndPan="magnify" viewBox="0 0 3610.5 3749.999967" height="5000" preserveAspectRatio="xMidYMid meet" version="1.0"><defs><clipPath id="ba0d3db608"><path d="M 0 0.257812 L 3610 0.257812 L 3610 3749.738281 L 0 3749.738281 Z M 0 0.257812 " clip-rule="nonzero"/></clipPath><clipPath id="493dee2bde"><path d="M 1126 2554.230469 L 2481 2554.230469 L 2481 3748.949219 L 1126 3748.949219 Z M 1126 2554.230469 " clip-rule="nonzero"/></clipPath><clipPath id="0c7be85b41"><path d="M 1141.542969 3094.550781 L 1422.726562 2611.269531 C 1443.273438 2575.953125 1481.046875 2554.230469 1521.902344 2554.230469 L 2085.03125 2554.230469 C 2125.890625 2554.230469 2163.664062 2575.953125 2184.210938 2611.269531 L 2465.390625 3094.550781 C 2485.90625 3129.808594 2485.90625 3173.371094 2465.390625 3208.628906 L 2184.210938 3691.910156 C 2163.664062 3727.226562 2125.890625 3748.949219 2085.03125 3748.949219 L 1521.902344 3748.949219 C 1481.046875 3748.949219 1443.273438 3727.226562 1422.726562 3691.910156 L 1141.542969 3208.628906 C 1121.027344 3173.371094 1121.027344 3129.808594 1141.542969 3094.550781 Z M 1141.542969 3094.550781 " clip-rule="nonzero"/></clipPath><clipPath id="a25798dbd5"><path d="M 0 0.230469 L 1355 0.230469 L 1355 1194.949219 L 0 1194.949219 Z M 0 0.230469 " clip-rule="nonzero"/></clipPath><clipPath id="9b4c67388a"><path d="M 15.542969 540.550781 L 296.726562 57.269531 C 317.273438 21.953125 355.046875 0.230469 395.902344 0.230469 L 959.03125 0.230469 C 999.890625 0.230469 1037.664062 21.953125 1058.210938 57.269531 L 1339.390625 540.550781 C 1359.90625 575.808594 1359.90625 619.371094 1339.390625 654.628906 L 1058.210938 1137.910156 C 1037.664062 1173.226562 999.890625 1194.949219 959.03125 1194.949219 L 395.902344 1194.949219 C 355.046875 1194.949219 317.273438 1173.226562 296.726562 1137.910156 L 15.542969 654.628906 C -4.972656 619.371094 -4.972656 575.808594 15.542969 540.550781 Z M 15.542969 540.550781 " clip-rule="nonzero"/></clipPath><clipPath id="ce94c6dd8c"><rect x="0" width="1355" y="0" height="1195"/></clipPath><clipPath id="38e61e8d71"><path d="M 2237 1918.945312 L 3592 1918.945312 L 3592 3113.667969 L 2237 3113.667969 Z M 2237 1918.945312 " clip-rule="nonzero"/></clipPath><clipPath id="d580a48f78"><path d="M 2252.660156 2459.265625 L 2533.84375 1975.984375 C 2554.390625 1940.667969 2592.164062 1918.945312 2633.023438 1918.945312 L 3196.152344 1918.945312 C 3237.007812 1918.945312 3274.78125 1940.667969 3295.328125 1975.984375 L 3576.511719 2459.265625 C 3597.023438 2494.527344 3597.023438 2538.085938 3576.511719 2573.34375 L 3295.328125 3056.628906 C 3274.78125 3091.941406 3237.007812 3113.667969 3196.152344 3113.667969 L 2633.023438 3113.667969 C 2592.164062 3113.667969 2554.390625 3091.941406 2533.84375 3056.628906 L 2252.660156 2573.34375 C 2232.148438 2538.085938 2232.148438 2494.527344 2252.660156 2459.265625 Z M 2252.660156 2459.265625 " clip-rule="nonzero"/></clipPath><clipPath id="aad86c2258"><path d="M 0 0.945312 L 1355 0.945312 L 1355 1195.667969 L 0 1195.667969 Z M 0 0.945312 " clip-rule="nonzero"/></clipPath><clipPath id="97384fee17"><path d="M 15.660156 541.265625 L 296.84375 57.984375 C 317.390625 22.667969 355.164062 0.945312 396.023438 0.945312 L 959.152344 0.945312 C 1000.007812 0.945312 1037.78125 22.667969 1058.328125 57.984375 L 1339.511719 541.265625 C 1360.023438 576.527344 1360.023438 620.085938 1339.511719 655.34375 L 1058.328125 1138.628906 C 1037.78125 1173.941406 1000.007812 1195.667969 959.152344 1195.667969 L 396.023438 1195.667969 C 355.164062 1195.667969 317.390625 1173.941406 296.84375 1138.628906 L 15.660156 655.34375 C -4.851562 620.085938 -4.851562 576.527344 15.660156 541.265625 Z M 15.660156 541.265625 " clip-rule="nonzero"/></clipPath><clipPath id="52c42eacf3"><rect x="0" width="1355" y="0" height="1196"/></clipPath><clipPath id="87cc77cac5"><path d="M 2237 640.269531 L 3592 640.269531 L 3592 1834.992188 L 2237 1834.992188 Z M 2237 640.269531 " clip-rule="nonzero"/></clipPath><clipPath id="5766dd8124"><path d="M 2252.660156 1180.589844 L 2533.84375 697.308594 C 2554.390625 661.996094 2592.164062 640.269531 2633.023438 640.269531 L 3196.152344 640.269531 C 3237.007812 640.269531 3274.78125 661.996094 3295.328125 697.308594 L 3576.511719 1180.589844 C 3597.023438 1215.851562 3597.023438 1259.410156 3576.511719 1294.667969 L 3295.328125 1777.953125 C 3274.78125 1813.265625 3237.007812 1834.992188 3196.152344 1834.992188 L 2633.023438 1834.992188 C 2592.164062 1834.992188 2554.390625 1813.265625 2533.84375 1777.953125 L 2252.660156 1294.667969 C 2232.148438 1259.410156 2232.148438 1215.851562 2252.660156 1180.589844 Z M 2252.660156 1180.589844 " clip-rule="nonzero"/></clipPath><clipPath id="95518597d9"><path d="M 0 0.269531 L 1355 0.269531 L 1355 1194.992188 L 0 1194.992188 Z M 0 0.269531 " clip-rule="nonzero"/></clipPath><clipPath id="c2ae4573cd"><path d="M 15.660156 540.589844 L 296.84375 57.308594 C 317.390625 21.996094 355.164062 0.269531 396.023438 0.269531 L 959.152344 0.269531 C 1000.007812 0.269531 1037.78125 21.996094 1058.328125 57.308594 L 1339.511719 540.589844 C 1360.023438 575.851562 1360.023438 619.410156 1339.511719 654.667969 L 1058.328125 1137.953125 C 1037.78125 1173.265625 1000.007812 1194.992188 959.152344 1194.992188 L 396.023438 1194.992188 C 355.164062 1194.992188 317.390625 1173.265625 296.84375 1137.953125 L 15.660156 654.667969 C -4.851562 619.410156 -4.851562 575.851562 15.660156 540.589844 Z M 15.660156 540.589844 " clip-rule="nonzero"/></clipPath><clipPath id="708add7229"><rect x="0" width="1355" y="0" height="1195"/></clipPath><clipPath id="3f9c378450"><path d="M 1129 0.257812 L 2485 0.257812 L 2485 1194.824219 L 1129 1194.824219 Z M 1129 0.257812 " clip-rule="nonzero"/></clipPath><clipPath id="42599d0812"><path d="M 1144.8125 540.425781 L 1425.996094 57.140625 C 1446.542969 21.828125 1484.316406 0.101562 1525.171875 0.101562 L 2088.300781 0.101562 C 2129.160156 0.101562 2166.933594 21.828125 2187.480469 57.140625 L 2468.664062 540.425781 C 2489.175781 575.683594 2489.175781 619.242188 2468.664062 654.503906 L 2187.480469 1137.785156 C 2166.933594 1173.101562 2129.160156 1194.824219 2088.300781 1194.824219 L 1525.171875 1194.824219 C 1484.316406 1194.824219 1446.542969 1173.101562 1425.996094 1137.785156 L 1144.8125 654.503906 C 1124.296875 619.242188 1124.296875 575.683594 1144.8125 540.425781 Z M 1144.8125 540.425781 " clip-rule="nonzero"/></clipPath><clipPath id="08202650a9"><path d="M 0 0.257812 L 1356 0.257812 L 1356 1194.824219 L 0 1194.824219 Z M 0 0.257812 " clip-rule="nonzero"/></clipPath><clipPath id="bb220a3e95"><path d="M 15.8125 540.425781 L 296.996094 57.140625 C 317.542969 21.828125 355.316406 0.101562 396.171875 0.101562 L 959.300781 0.101562 C 1000.160156 0.101562 1037.933594 21.828125 1058.480469 57.140625 L 1339.664062 540.425781 C 1360.175781 575.683594 1360.175781 619.242188 1339.664062 654.503906 L 1058.480469 1137.785156 C 1037.933594 1173.101562 1000.160156 1194.824219 959.300781 1194.824219 L 396.171875 1194.824219 C 355.316406 1194.824219 317.542969 1173.101562 296.996094 1137.785156 L 15.8125 654.503906 C -4.703125 619.242188 -4.703125 575.683594 15.8125 540.425781 Z M 15.8125 540.425781 " clip-rule="nonzero"/></clipPath><clipPath id="afea43058d"><rect x="0" width="1356" y="0" height="1195"/></clipPath><clipPath id="61a92ef23e"><path d="M 17 1918.945312 L 1373 1918.945312 L 1373 3113.667969 L 17 3113.667969 Z M 17 1918.945312 " clip-rule="nonzero"/></clipPath><clipPath id="397cdd5b8e"><path d="M 33.113281 2459.265625 L 314.296875 1975.984375 C 334.84375 1940.667969 372.617188 1918.945312 413.472656 1918.945312 L 976.605469 1918.945312 C 1017.460938 1918.945312 1055.234375 1940.667969 1075.78125 1975.984375 L 1356.964844 2459.265625 C 1377.476562 2494.527344 1377.476562 2538.085938 1356.964844 2573.34375 L 1075.78125 3056.628906 C 1055.234375 3091.941406 1017.460938 3113.667969 976.605469 3113.667969 L 413.472656 3113.667969 C 372.617188 3113.667969 334.84375 3091.941406 314.296875 3056.628906 L 33.113281 2573.34375 C 12.601562 2538.085938 12.601562 2494.527344 33.113281 2459.265625 Z M 33.113281 2459.265625 " clip-rule="nonzero"/></clipPath><clipPath id="7167b9214f"><path d="M 0 0.945312 L 1356 0.945312 L 1356 1195.667969 L 0 1195.667969 Z M 0 0.945312 " clip-rule="nonzero"/></clipPath><clipPath id="e7a48dd6bc"><path d="M 16.113281 541.265625 L 297.296875 57.984375 C 317.84375 22.667969 355.617188 0.945312 396.472656 0.945312 L 959.605469 0.945312 C 1000.460938 0.945312 1038.234375 22.667969 1058.78125 57.984375 L 1339.964844 541.265625 C 1360.476562 576.527344 1360.476562 620.085938 1339.964844 655.34375 L 1058.78125 1138.628906 C 1038.234375 1173.941406 1000.460938 1195.667969 959.605469 1195.667969 L 396.472656 1195.667969 C 355.617188 1195.667969 317.84375 1173.941406 297.296875 1138.628906 L 16.113281 655.34375 C -4.398438 620.085938 -4.398438 576.527344 16.113281 541.265625 Z M 16.113281 541.265625 " clip-rule="nonzero"/></clipPath><clipPath id="1533bb273a"><rect x="0" width="1356" y="0" height="1196"/></clipPath><clipPath id="3fea63d3d1"><path d="M 17 640.269531 L 1373 640.269531 L 1373 1834.992188 L 17 1834.992188 Z M 17 640.269531 " clip-rule="nonzero"/></clipPath><clipPath id="66eeb91032"><path d="M 33.113281 1180.589844 L 314.296875 697.308594 C 334.84375 661.996094 372.617188 640.269531 413.472656 640.269531 L 976.605469 640.269531 C 1017.460938 640.269531 1055.234375 661.996094 1075.78125 697.308594 L 1356.964844 1180.589844 C 1377.476562 1215.851562 1377.476562 1259.410156 1356.964844 1294.667969 L 1075.78125 1777.953125 C 1055.234375 1813.265625 1017.460938 1834.992188 976.605469 1834.992188 L 413.472656 1834.992188 C 372.617188 1834.992188 334.84375 1813.265625 314.296875 1777.953125 L 33.113281 1294.667969 C 12.601562 1259.410156 12.601562 1215.851562 33.113281 1180.589844 Z M 33.113281 1180.589844 " clip-rule="nonzero"/></clipPath><clipPath id="49ae6a237b"><path d="M 0 0.269531 L 1356 0.269531 L 1356 1194.992188 L 0 1194.992188 Z M 0 0.269531 " clip-rule="nonzero"/></clipPath><clipPath id="8e80940984"><path d="M 16.113281 540.589844 L 297.296875 57.308594 C 317.84375 21.996094 355.617188 0.269531 396.472656 0.269531 L 959.605469 0.269531 C 1000.460938 0.269531 1038.234375 21.996094 1058.78125 57.308594 L 1339.964844 540.589844 C 1360.476562 575.851562 1360.476562 619.410156 1339.964844 654.667969 L 1058.78125 1137.953125 C 1038.234375 1173.265625 1000.460938 1194.992188 959.605469 1194.992188 L 396.472656 1194.992188 C 355.617188 1194.992188 317.84375 1173.265625 297.296875 1137.953125 L 16.113281 654.667969 C -4.398438 619.410156 -4.398438 575.851562 16.113281 540.589844 Z M 16.113281 540.589844 " clip-rule="nonzero"/></clipPath><clipPath id="08dbbde309"><rect x="0" width="1356" y="0" height="1195"/></clipPath><clipPath id="35ced2f938"><rect x="0" width="3610" y="0" height="3750"/></clipPath></defs><g clip-path="url(#ba0d3db608)"><g transform="matrix(1, 0, 0, 1, -0, 0.00000000000001793)"><g clip-path="url(#35ced2f938)"><g clip-path="url(#493dee2bde)"><g clip-path="url(#0c7be85b41)"><g transform="matrix(1, 0, 0, 1, 1126, 2554)"><g clip-path="url(#ce94c6dd8c)"><g clip-path="url(#a25798dbd5)"><g clip-path="url(#9b4c67388a)"><path fill="#3A5676" d="M -17.644531 1194.949219 L -17.644531 0.230469 L 1373.089844 0.230469 L 1373.089844 1194.949219 Z M -17.644531 1194.949219 " fill-opacity="1" fill-rule="nonzero"/></g></g></g></g></g></g><g clip-path="url(#38e61e8d71)"><g clip-path="url(#d580a48f78)"><g transform="matrix(1, 0, 0, 1, 2237, 1918)"><g clip-path="url(#52c42eacf3)"><g clip-path="url(#aad86c2258)"><g clip-path="url(#97384fee17)"><path fill="#3A5676" d="M -17.523438 1195.667969 L -17.523438 0.945312 L 1373.207031 0.945312 L 1373.207031 1195.667969 Z M -17.523438 1195.667969 " fill-opacity="1" fill-rule="nonzero"/></g></g></g></g></g></g><g clip-path="url(#87cc77cac5)"><g clip-path="url(#5766dd8124)"><g transform="matrix(1, 0, 0, 1, 2237, 640)"><g clip-path="url(#708add7229)"><g clip-path="url(#95518597d9)"><g clip-path="url(#c2ae4573cd)"><path fill="#3A5676" d="M -17.523438 1194.992188 L -17.523438 0.269531 L 1373.207031 0.269531 L 1373.207031 1194.992188 Z M -17.523438 1194.992188 " fill-opacity="1" fill-rule="nonzero"/></g></g></g></g></g></g><g clip-path="url(#3f9c378450)"><g clip-path="url(#42599d0812)"><g transform="matrix(1, 0, 0, 1, 1129, 0.00000000000001793)"><g clip-path="url(#afea43058d)"><g clip-path="url(#08202650a9)"><g clip-path="url(#bb220a3e95)"><path fill="#3A5676" d="M -17.375 1194.824219 L -17.375 0.101562 L 1373.359375 0.101562 L 1373.359375 1194.824219 Z M -17.375 1194.824219 " fill-opacity="1" fill-rule="nonzero"/></g></g></g></g></g></g><g clip-path="url(#61a92ef23e)"><g clip-path="url(#397cdd5b8e)"><g transform="matrix(1, 0, 0, 1, 17, 1918)"><g clip-path="url(#1533bb273a)"><g clip-path="url(#7167b9214f)"><g clip-path="url(#e7a48dd6bc)"><path fill="#3A5676" d="M -17.070312 1195.667969 L -17.070312 0.945312 L 1373.660156 0.945312 L 1373.660156 1195.667969 Z M -17.070312 1195.667969 " fill-opacity="1" fill-rule="nonzero"/></g></g></g></g></g></g><g clip-path="url(#3fea63d3d1)"><g clip-path="url(#66eeb91032)"><g transform="matrix(1, 0, 0, 1, 17, 640)"><g clip-path="url(#08dbbde309)"><g clip-path="url(#49ae6a237b)"><g clip-path="url(#8e80940984)"><path fill="#3A5676" d="M -17.070312 1194.992188 L -17.070312 0.269531 L 1373.660156 0.269531 L 1373.660156 1194.992188 Z M -17.070312 1194.992188 " fill-opacity="1" fill-rule="nonzero"/></g></g></g></g></g></g></g></g></g></svg>